<svg width="334" height="82" viewBox="0 0 334 82" fill="none" xmlns="http://www.w3.org/2000/svg">
<g filter="url(#filter0_d_585_4885)">
<g filter="url(#filter1_d_585_4885)">
<rect x="4" y="4" width="326" height="74" rx="20" fill="#2A3647" shape-rendering="crispEdges"/>
<path d="M48.9659 35.017V33.4545H59.875V35.017H55.3011V48H53.5398V35.017H48.9659ZM64.092 48.2557C63.4007 48.2557 62.7733 48.1255 62.2099 47.8651C61.6464 47.5999 61.199 47.2188 60.8675 46.7216C60.5361 46.2197 60.3704 45.6136 60.3704 44.9034C60.3704 44.2784 60.4935 43.7718 60.7397 43.3835C60.9859 42.9905 61.315 42.6828 61.7269 42.4602C62.1388 42.2377 62.5934 42.072 63.0906 41.9631C63.5924 41.8494 64.0967 41.7595 64.6033 41.6932C65.2662 41.608 65.8036 41.544 66.2156 41.5014C66.6322 41.4541 66.9353 41.3759 67.1246 41.267C67.3188 41.1581 67.4158 40.9687 67.4158 40.6989V40.642C67.4158 39.9413 67.2241 39.3968 66.8406 39.0085C66.4618 38.6203 65.8865 38.4261 65.1147 38.4261C64.3145 38.4261 63.6871 38.6013 63.2326 38.9517C62.7781 39.3021 62.4585 39.6761 62.2738 40.0739L60.6829 39.5057C60.967 38.8428 61.3458 38.3267 61.8192 37.9574C62.2975 37.5833 62.8183 37.3229 63.3817 37.1761C63.9499 37.0246 64.5086 36.9489 65.0579 36.9489C65.4083 36.9489 65.8107 36.9915 66.2653 37.0767C66.7246 37.1572 67.1673 37.3253 67.5934 37.581C68.0243 37.8366 68.3817 38.2225 68.6658 38.7386C68.9499 39.2547 69.092 39.946 69.092 40.8125V48H67.4158V46.5227H67.3306C67.217 46.7595 67.0276 47.0128 66.7624 47.2827C66.4973 47.5526 66.1445 47.7822 65.7042 47.9716C65.2638 48.161 64.7264 48.2557 64.092 48.2557ZM64.3477 46.75C65.0105 46.75 65.5692 46.6198 66.0238 46.3594C66.4831 46.099 66.8287 45.7628 67.0607 45.3509C67.2975 44.9389 67.4158 44.5057 67.4158 44.0511V42.517C67.3448 42.6023 67.1886 42.6804 66.9471 42.7514C66.7103 42.8177 66.4357 42.8769 66.1232 42.929C65.8155 42.9763 65.5148 43.0189 65.2212 43.0568C64.9324 43.09 64.698 43.1184 64.5181 43.142C64.0825 43.1989 63.6753 43.2912 63.2965 43.419C62.9225 43.5421 62.6194 43.7292 62.3874 43.9801C62.1602 44.2263 62.0465 44.5625 62.0465 44.9886C62.0465 45.571 62.262 46.0114 62.6928 46.3097C63.1284 46.6032 63.68 46.75 64.3477 46.75ZM79.8786 39.5341L78.3729 39.9602C78.2782 39.7093 78.1385 39.4654 77.9538 39.2287C77.7739 38.9872 77.5277 38.7884 77.2152 38.6321C76.9027 38.4759 76.5026 38.3977 76.0149 38.3977C75.3473 38.3977 74.791 38.5516 74.3459 38.8594C73.9055 39.1624 73.6854 39.5483 73.6854 40.017C73.6854 40.4337 73.8369 40.7628 74.1399 41.0043C74.4429 41.2457 74.9164 41.447 75.5604 41.608L77.1797 42.0057C78.1551 42.2424 78.8819 42.6046 79.3601 43.0923C79.8383 43.5753 80.0774 44.1979 80.0774 44.9602C80.0774 45.5852 79.8975 46.1439 79.5376 46.6364C79.1825 47.1288 78.6854 47.517 78.0462 47.8011C77.407 48.0852 76.6636 48.2273 75.8161 48.2273C74.7034 48.2273 73.7824 47.9858 73.0533 47.5028C72.3241 47.0199 71.8625 46.3144 71.6683 45.3864L73.2592 44.9886C73.4107 45.5758 73.6972 46.0161 74.1186 46.3097C74.5447 46.6032 75.1011 46.75 75.7876 46.75C76.5689 46.75 77.1892 46.5843 77.6484 46.2528C78.1125 45.9167 78.3445 45.5142 78.3445 45.0455C78.3445 44.6667 78.2119 44.3494 77.9467 44.0938C77.6816 43.8333 77.2744 43.6392 76.7251 43.5114L74.907 43.0852C73.9079 42.8485 73.174 42.4815 72.7053 41.9844C72.2412 41.4825 72.0092 40.8551 72.0092 40.1023C72.0092 39.4867 72.1821 38.9422 72.5277 38.4688C72.8781 37.9953 73.3539 37.6236 73.9553 37.3537C74.5613 37.0838 75.2479 36.9489 76.0149 36.9489C77.0945 36.9489 77.942 37.1856 78.5575 37.6591C79.1778 38.1326 79.6181 38.7576 79.8786 39.5341ZM84.163 44.0227L84.1346 41.9489H84.4755L89.2482 37.0909H91.3221L86.2369 42.233H86.0948L84.163 44.0227ZM82.6005 48V33.4545H84.2766V48H82.6005ZM89.5323 48L85.271 42.6023L86.4641 41.4375L91.663 48H89.5323ZM102.315 48.2557C101.623 48.2557 100.996 48.1255 100.433 47.8651C99.8691 47.5999 99.4216 47.2188 99.0902 46.7216C98.7588 46.2197 98.593 45.6136 98.593 44.9034C98.593 44.2784 98.7161 43.7718 98.9624 43.3835C99.2086 42.9905 99.5376 42.6828 99.9496 42.4602C100.362 42.2377 100.816 42.072 101.313 41.9631C101.815 41.8494 102.319 41.7595 102.826 41.6932C103.489 41.608 104.026 41.544 104.438 41.5014C104.855 41.4541 105.158 41.3759 105.347 41.267C105.541 41.1581 105.638 40.9687 105.638 40.6989V40.642C105.638 39.9413 105.447 39.3968 105.063 39.0085C104.684 38.6203 104.109 38.4261 103.337 38.4261C102.537 38.4261 101.91 38.6013 101.455 38.9517C101.001 39.3021 100.681 39.6761 100.496 40.0739L98.9055 39.5057C99.1896 38.8428 99.5684 38.3267 100.042 37.9574C100.52 37.5833 101.041 37.3229 101.604 37.1761C102.173 37.0246 102.731 36.9489 103.281 36.9489C103.631 36.9489 104.033 36.9915 104.488 37.0767C104.947 37.1572 105.39 37.3253 105.816 37.581C106.247 37.8366 106.604 38.2225 106.888 38.7386C107.173 39.2547 107.315 39.946 107.315 40.8125V48H105.638V46.5227H105.553C105.44 46.7595 105.25 47.0128 104.985 47.2827C104.72 47.5526 104.367 47.7822 103.927 47.9716C103.487 48.161 102.949 48.2557 102.315 48.2557ZM102.57 46.75C103.233 46.75 103.792 46.6198 104.246 46.3594C104.706 46.099 105.051 45.7628 105.283 45.3509C105.52 44.9389 105.638 44.5057 105.638 44.0511V42.517C105.567 42.6023 105.411 42.6804 105.17 42.7514C104.933 42.8177 104.658 42.8769 104.346 42.929C104.038 42.9763 103.737 43.0189 103.444 43.0568C103.155 43.09 102.921 43.1184 102.741 43.142C102.305 43.1989 101.898 43.2912 101.519 43.419C101.145 43.5421 100.842 43.7292 100.61 43.9801C100.383 44.2263 100.269 44.5625 100.269 44.9886C100.269 45.571 100.485 46.0114 100.915 46.3097C101.351 46.6032 101.903 46.75 102.57 46.75ZM114.493 48.2273C113.584 48.2273 112.782 47.9976 112.086 47.5384C111.39 47.0743 110.845 46.4209 110.452 45.5781C110.059 44.7306 109.863 43.7292 109.863 42.5739C109.863 41.428 110.059 40.4337 110.452 39.5909C110.845 38.7481 111.392 38.0971 112.093 37.6378C112.793 37.1785 113.603 36.9489 114.522 36.9489C115.232 36.9489 115.793 37.0672 116.205 37.304C116.622 37.536 116.939 37.8011 117.157 38.0994C117.379 38.393 117.552 38.6345 117.675 38.8239H117.817V33.4545H119.493V48H117.874V46.3239H117.675C117.552 46.5227 117.377 46.7737 117.15 47.0767C116.922 47.375 116.598 47.6425 116.176 47.8793C115.755 48.1113 115.194 48.2273 114.493 48.2273ZM114.721 46.7216C115.393 46.7216 115.961 46.5464 116.425 46.196C116.889 45.8409 117.242 45.3509 117.483 44.7259C117.725 44.0961 117.846 43.3693 117.846 42.5455C117.846 41.7311 117.727 41.0185 117.49 40.4077C117.254 39.7921 116.903 39.3139 116.439 38.973C115.975 38.6274 115.402 38.4545 114.721 38.4545C114.01 38.4545 113.418 38.6368 112.945 39.0014C112.476 39.3613 112.123 39.8513 111.887 40.4716C111.655 41.0871 111.539 41.7784 111.539 42.5455C111.539 43.322 111.657 44.0275 111.894 44.6619C112.135 45.2917 112.49 45.7936 112.959 46.1676C113.433 46.5369 114.02 46.7216 114.721 46.7216ZM126.915 48.2273C126.006 48.2273 125.203 47.9976 124.507 47.5384C123.811 47.0743 123.267 46.4209 122.874 45.5781C122.481 44.7306 122.284 43.7292 122.284 42.5739C122.284 41.428 122.481 40.4337 122.874 39.5909C123.267 38.7481 123.814 38.0971 124.515 37.6378C125.215 37.1785 126.025 36.9489 126.944 36.9489C127.654 36.9489 128.215 37.0672 128.627 37.304C129.043 37.536 129.361 37.8011 129.578 38.0994C129.801 38.393 129.974 38.6345 130.097 38.8239H130.239V33.4545H131.915V48H130.296V46.3239H130.097C129.974 46.5227 129.799 46.7737 129.571 47.0767C129.344 47.375 129.02 47.6425 128.598 47.8793C128.177 48.1113 127.616 48.2273 126.915 48.2273ZM127.142 46.7216C127.815 46.7216 128.383 46.5464 128.847 46.196C129.311 45.8409 129.664 45.3509 129.905 44.7259C130.147 44.0961 130.267 43.3693 130.267 42.5455C130.267 41.7311 130.149 41.0185 129.912 40.4077C129.676 39.7921 129.325 39.3139 128.861 38.973C128.397 38.6274 127.824 38.4545 127.142 38.4545C126.432 38.4545 125.84 38.6368 125.367 39.0014C124.898 39.3613 124.545 39.8513 124.309 40.4716C124.077 41.0871 123.961 41.7784 123.961 42.5455C123.961 43.322 124.079 44.0275 124.316 44.6619C124.557 45.2917 124.912 45.7936 125.381 46.1676C125.855 46.5369 126.442 46.7216 127.142 46.7216ZM139.792 48.2273C138.74 48.2273 137.834 47.9953 137.071 47.5312C136.314 47.0625 135.729 46.4091 135.317 45.571C134.91 44.7282 134.706 43.7481 134.706 42.6307C134.706 41.5133 134.91 40.5284 135.317 39.6761C135.729 38.8191 136.302 38.1515 137.036 37.6733C137.775 37.1903 138.636 36.9489 139.621 36.9489C140.189 36.9489 140.75 37.0436 141.304 37.233C141.858 37.4223 142.363 37.7301 142.817 38.1562C143.272 38.5777 143.634 39.1364 143.904 39.8324C144.174 40.5284 144.309 41.3854 144.309 42.4034V43.1136H135.9V41.6648H142.604C142.604 41.0492 142.481 40.5 142.235 40.017C141.993 39.5341 141.648 39.1529 141.198 38.8736C140.753 38.5942 140.227 38.4545 139.621 38.4545C138.953 38.4545 138.376 38.6203 137.888 38.9517C137.405 39.2784 137.033 39.7045 136.773 40.2301C136.513 40.7557 136.382 41.3191 136.382 41.9205V42.8864C136.382 43.7102 136.525 44.4086 136.809 44.9815C137.097 45.5497 137.498 45.983 138.009 46.2812C138.52 46.5748 139.114 46.7216 139.792 46.7216C140.232 46.7216 140.63 46.66 140.985 46.5369C141.345 46.4091 141.655 46.2197 141.915 45.9688C142.176 45.7131 142.377 45.3958 142.519 45.017L144.138 45.4716C143.968 46.0208 143.681 46.5038 143.279 46.9205C142.876 47.3324 142.379 47.6544 141.787 47.8864C141.195 48.1136 140.53 48.2273 139.792 48.2273ZM150.978 48.2273C150.069 48.2273 149.266 47.9976 148.57 47.5384C147.874 47.0743 147.329 46.4209 146.936 45.5781C146.543 44.7306 146.347 43.7292 146.347 42.5739C146.347 41.428 146.543 40.4337 146.936 39.5909C147.329 38.7481 147.876 38.0971 148.577 37.6378C149.278 37.1785 150.087 36.9489 151.006 36.9489C151.716 36.9489 152.277 37.0672 152.689 37.304C153.106 37.536 153.423 37.8011 153.641 38.0994C153.864 38.393 154.036 38.6345 154.159 38.8239H154.301V33.4545H155.978V48H154.358V46.3239H154.159C154.036 46.5227 153.861 46.7737 153.634 47.0767C153.407 47.375 153.082 47.6425 152.661 47.8793C152.239 48.1113 151.678 48.2273 150.978 48.2273ZM151.205 46.7216C151.877 46.7216 152.445 46.5464 152.909 46.196C153.373 45.8409 153.726 45.3509 153.968 44.7259C154.209 44.0961 154.33 43.3693 154.33 42.5455C154.33 41.7311 154.212 41.0185 153.975 40.4077C153.738 39.7921 153.388 39.3139 152.924 38.973C152.46 38.6274 151.887 38.4545 151.205 38.4545C150.495 38.4545 149.903 38.6368 149.429 39.0014C148.961 39.3613 148.608 39.8513 148.371 40.4716C148.139 41.0871 148.023 41.7784 148.023 42.5455C148.023 43.322 148.141 44.0275 148.378 44.6619C148.62 45.2917 148.975 45.7936 149.444 46.1676C149.917 46.5369 150.504 46.7216 151.205 46.7216ZM169.65 37.0909V38.5114H163.996V37.0909H169.65ZM165.644 34.4773H167.32V44.875C167.32 45.3485 167.389 45.7036 167.526 45.9403C167.668 46.1723 167.848 46.3286 168.066 46.4091C168.288 46.4848 168.523 46.5227 168.769 46.5227C168.953 46.5227 169.105 46.5133 169.223 46.4943C169.342 46.4706 169.436 46.4517 169.507 46.4375L169.848 47.9432C169.735 47.9858 169.576 48.0284 169.373 48.071C169.169 48.1184 168.911 48.142 168.598 48.142C168.125 48.142 167.661 48.0402 167.206 47.8366C166.757 47.633 166.382 47.3229 166.084 46.9062C165.791 46.4896 165.644 45.964 165.644 45.3295V34.4773ZM176.485 48.2273C175.501 48.2273 174.636 47.9929 173.893 47.5241C173.154 47.0554 172.577 46.3996 172.16 45.5568C171.748 44.714 171.542 43.7292 171.542 42.6023C171.542 41.4659 171.748 40.474 172.16 39.6264C172.577 38.7789 173.154 38.1207 173.893 37.652C174.636 37.1832 175.501 36.9489 176.485 36.9489C177.47 36.9489 178.332 37.1832 179.071 37.652C179.814 38.1207 180.392 38.7789 180.804 39.6264C181.22 40.474 181.429 41.4659 181.429 42.6023C181.429 43.7292 181.22 44.714 180.804 45.5568C180.392 46.3996 179.814 47.0554 179.071 47.5241C178.332 47.9929 177.47 48.2273 176.485 48.2273ZM176.485 46.7216C177.234 46.7216 177.849 46.5298 178.332 46.1463C178.815 45.7628 179.172 45.2585 179.404 44.6335C179.636 44.0085 179.752 43.3314 179.752 42.6023C179.752 41.8731 179.636 41.1937 179.404 40.5639C179.172 39.9342 178.815 39.4252 178.332 39.0369C177.849 38.6487 177.234 38.4545 176.485 38.4545C175.737 38.4545 175.122 38.6487 174.639 39.0369C174.156 39.4252 173.798 39.9342 173.566 40.5639C173.334 41.1937 173.218 41.8731 173.218 42.6023C173.218 43.3314 173.334 44.0085 173.566 44.6335C173.798 45.2585 174.156 45.7628 174.639 46.1463C175.122 46.5298 175.737 46.7216 176.485 46.7216ZM189.839 48V33.4545H191.516V38.8239H191.658C191.781 38.6345 191.951 38.393 192.169 38.0994C192.392 37.8011 192.709 37.536 193.121 37.304C193.537 37.0672 194.101 36.9489 194.811 36.9489C195.73 36.9489 196.539 37.1785 197.24 37.6378C197.941 38.0971 198.488 38.7481 198.881 39.5909C199.274 40.4337 199.47 41.428 199.47 42.5739C199.47 43.7292 199.274 44.7306 198.881 45.5781C198.488 46.4209 197.943 47.0743 197.247 47.5384C196.551 47.9976 195.749 48.2273 194.839 48.2273C194.139 48.2273 193.578 48.1113 193.156 47.8793C192.735 47.6425 192.411 47.375 192.183 47.0767C191.956 46.7737 191.781 46.5227 191.658 46.3239H191.459V48H189.839ZM191.487 42.5455C191.487 43.3693 191.608 44.0961 191.849 44.7259C192.091 45.3509 192.444 45.8409 192.908 46.196C193.372 46.5464 193.94 46.7216 194.612 46.7216C195.313 46.7216 195.898 46.5369 196.366 46.1676C196.84 45.7936 197.195 45.2917 197.432 44.6619C197.673 44.0275 197.794 43.322 197.794 42.5455C197.794 41.7784 197.676 41.0871 197.439 40.4716C197.207 39.8513 196.854 39.3613 196.381 39.0014C195.912 38.6368 195.322 38.4545 194.612 38.4545C193.93 38.4545 193.357 38.6274 192.893 38.973C192.429 39.3139 192.079 39.7921 191.842 40.4077C191.606 41.0185 191.487 41.7311 191.487 42.5455ZM206.466 48.2273C205.481 48.2273 204.617 47.9929 203.874 47.5241C203.135 47.0554 202.557 46.3996 202.141 45.5568C201.729 44.714 201.523 43.7292 201.523 42.6023C201.523 41.4659 201.729 40.474 202.141 39.6264C202.557 38.7789 203.135 38.1207 203.874 37.652C204.617 37.1832 205.481 36.9489 206.466 36.9489C207.451 36.9489 208.313 37.1832 209.051 37.652C209.795 38.1207 210.372 38.7789 210.784 39.6264C211.201 40.474 211.409 41.4659 211.409 42.6023C211.409 43.7292 211.201 44.714 210.784 45.5568C210.372 46.3996 209.795 47.0554 209.051 47.5241C208.313 47.9929 207.451 48.2273 206.466 48.2273ZM206.466 46.7216C207.214 46.7216 207.83 46.5298 208.312 46.1463C208.795 45.7628 209.153 45.2585 209.385 44.6335C209.617 44.0085 209.733 43.3314 209.733 42.6023C209.733 41.8731 209.617 41.1937 209.385 40.5639C209.153 39.9342 208.795 39.4252 208.312 39.0369C207.83 38.6487 207.214 38.4545 206.466 38.4545C205.718 38.4545 205.102 38.6487 204.619 39.0369C204.136 39.4252 203.779 39.9342 203.547 40.5639C203.315 41.1937 203.199 41.8731 203.199 42.6023C203.199 43.3314 203.315 44.0085 203.547 44.6335C203.779 45.2585 204.136 45.7628 204.619 46.1463C205.102 46.5298 205.718 46.7216 206.466 46.7216ZM217.178 48.2557C216.487 48.2557 215.859 48.1255 215.296 47.8651C214.732 47.5999 214.285 47.2188 213.953 46.7216C213.622 46.2197 213.456 45.6136 213.456 44.9034C213.456 44.2784 213.579 43.7718 213.826 43.3835C214.072 42.9905 214.401 42.6828 214.813 42.4602C215.225 42.2377 215.679 42.072 216.176 41.9631C216.678 41.8494 217.183 41.7595 217.689 41.6932C218.352 41.608 218.89 41.544 219.301 41.5014C219.718 41.4541 220.021 41.3759 220.211 41.267C220.405 41.1581 220.502 40.9687 220.502 40.6989V40.642C220.502 39.9413 220.31 39.3968 219.926 39.0085C219.548 38.6203 218.972 38.4261 218.201 38.4261C217.4 38.4261 216.773 38.6013 216.319 38.9517C215.864 39.3021 215.544 39.6761 215.36 40.0739L213.769 39.5057C214.053 38.8428 214.432 38.3267 214.905 37.9574C215.383 37.5833 215.904 37.3229 216.468 37.1761C217.036 37.0246 217.595 36.9489 218.144 36.9489C218.494 36.9489 218.897 36.9915 219.351 37.0767C219.81 37.1572 220.253 37.3253 220.679 37.581C221.11 37.8366 221.468 38.2225 221.752 38.7386C222.036 39.2547 222.178 39.946 222.178 40.8125V48H220.502V46.5227H220.417C220.303 46.7595 220.114 47.0128 219.848 47.2827C219.583 47.5526 219.23 47.7822 218.79 47.9716C218.35 48.161 217.812 48.2557 217.178 48.2557ZM217.434 46.75C218.096 46.75 218.655 46.6198 219.11 46.3594C219.569 46.099 219.915 45.7628 220.147 45.3509C220.383 44.9389 220.502 44.5057 220.502 44.0511V42.517C220.431 42.6023 220.275 42.6804 220.033 42.7514C219.796 42.8177 219.522 42.8769 219.209 42.929C218.901 42.9763 218.601 43.0189 218.307 43.0568C218.018 43.09 217.784 43.1184 217.604 43.142C217.168 43.1989 216.761 43.2912 216.382 43.419C216.008 43.5421 215.705 43.7292 215.473 43.9801C215.246 44.2263 215.132 44.5625 215.132 44.9886C215.132 45.571 215.348 46.0114 215.779 46.3097C216.214 46.6032 216.766 46.75 217.434 46.75ZM225.237 48V37.0909H226.857V38.7386H226.97C227.169 38.1989 227.529 37.7609 228.05 37.4247C228.571 37.0885 229.158 36.9205 229.811 36.9205C229.934 36.9205 230.088 36.9228 230.273 36.9276C230.457 36.9323 230.597 36.9394 230.692 36.9489V38.6534C230.635 38.6392 230.505 38.6179 230.301 38.5895C230.102 38.5563 229.892 38.5398 229.669 38.5398C229.139 38.5398 228.665 38.651 228.249 38.8736C227.837 39.0914 227.51 39.3944 227.268 39.7827C227.032 40.1662 226.913 40.6042 226.913 41.0966V48H225.237ZM236.466 48.2273C235.557 48.2273 234.754 47.9976 234.058 47.5384C233.362 47.0743 232.818 46.4209 232.425 45.5781C232.032 44.7306 231.835 43.7292 231.835 42.5739C231.835 41.428 232.032 40.4337 232.425 39.5909C232.818 38.7481 233.365 38.0971 234.065 37.6378C234.766 37.1785 235.576 36.9489 236.494 36.9489C237.205 36.9489 237.766 37.0672 238.178 37.304C238.594 37.536 238.911 37.8011 239.129 38.0994C239.352 38.393 239.525 38.6345 239.648 38.8239H239.79V33.4545H241.466V48H239.847V46.3239H239.648C239.525 46.5227 239.349 46.7737 239.122 47.0767C238.895 47.375 238.571 47.6425 238.149 47.8793C237.728 48.1113 237.167 48.2273 236.466 48.2273ZM236.693 46.7216C237.366 46.7216 237.934 46.5464 238.398 46.196C238.862 45.8409 239.214 45.3509 239.456 44.7259C239.697 44.0961 239.818 43.3693 239.818 42.5455C239.818 41.7311 239.7 41.0185 239.463 40.4077C239.226 39.7921 238.876 39.3139 238.412 38.973C237.948 38.6274 237.375 38.4545 236.693 38.4545C235.983 38.4545 235.391 38.6368 234.918 39.0014C234.449 39.3613 234.096 39.8513 233.859 40.4716C233.627 41.0871 233.511 41.7784 233.511 42.5455C233.511 43.322 233.63 44.0275 233.866 44.6619C234.108 45.2917 234.463 45.7936 234.932 46.1676C235.405 46.5369 235.992 46.7216 236.693 46.7216Z" fill="white"/>
<path d="M280 31.9998L280 49.9998C279.999 50.5301 279.789 51.0385 279.414 51.4134C279.039 51.7884 278.53 51.9993 278 51.9998L274 51.9998C273.47 51.9993 272.961 51.7884 272.586 51.4134C272.211 51.0385 272.001 50.5301 272 49.9998L272 31.9998C272.001 31.4695 272.211 30.9611 272.586 30.5862C272.961 30.2112 273.47 30.0003 274 29.9998L278 29.9998C278.53 30.0003 279.039 30.2112 279.414 30.5862C279.789 30.9611 279.999 31.4695 280 31.9998ZM274 49.9998L278 49.9998L278 31.9998L274 31.9998L274 49.9998ZM274 31.9998L274 49.9998C273.999 50.5301 273.789 51.0384 273.414 51.4134C273.039 51.7883 272.53 51.9992 272 51.9998L268 51.9998C267.47 51.9992 266.961 51.7883 266.586 51.4134C266.211 51.0384 266.001 50.53 266 49.9998L266 31.9998C266.001 31.4695 266.211 30.9611 266.586 30.5861C266.961 30.2112 267.47 30.0003 268 29.9998L272 29.9998C272.53 30.0003 273.039 30.2112 273.414 30.5861C273.789 30.9611 273.999 31.4695 274 31.9998ZM268 49.9998L272 49.9998L272 31.9998L268 31.9998L268 49.9998ZM268 31.9998L268 49.9998C267.999 50.53 267.789 51.0384 267.414 51.4134C267.039 51.7883 266.53 51.9992 266 51.9998L262 51.9998C261.47 51.9992 260.961 51.7883 260.586 51.4134C260.211 51.0384 260.001 50.53 260 49.9998L260 31.9998C260.001 31.4695 260.211 30.9611 260.586 30.5861C260.961 30.2112 261.47 30.0003 262 29.9998L266 29.9998C266.53 30.0003 267.039 30.2112 267.414 30.5861C267.789 30.9611 267.999 31.4695 268 31.9998ZM262 49.9998L266 49.9998L266 31.9998L262 31.9998L262 49.9998Z" fill="white"/>
<path d="M286 32L286 50C285.999 50.5303 285.789 51.0387 285.414 51.4136C285.039 51.7886 284.53 51.9995 284 52L280 52C279.47 51.9995 278.961 51.7886 278.586 51.4136C278.211 51.0387 278.001 50.5301 278 49.9998L278 31.9998C278.001 31.4695 278.211 30.9613 278.586 30.5864C278.961 30.2114 279.47 30.0005 280 30L284 30C284.53 30.0005 285.039 30.2114 285.414 30.5864C285.789 30.9613 285.999 31.4697 286 32ZM280 49.9998L284 50L284 32L280 31.9998L280 49.9998Z" fill="white"/>
</g>
</g>
<defs>
<filter id="filter0_d_585_4885" x="0" y="0" width="334" height="82" filterUnits="userSpaceOnUse" color-interpolation-filters="sRGB">
<feFlood flood-opacity="0" result="BackgroundImageFix"/>
<feColorMatrix in="SourceAlpha" type="matrix" values="0 0 0 0 0 0 0 0 0 0 0 0 0 0 0 0 0 0 127 0" result="hardAlpha"/>
<feOffset/>
<feGaussianBlur stdDeviation="2"/>
<feColorMatrix type="matrix" values="0 0 0 0 0 0 0 0 0 0 0 0 0 0 0 0 0 0 0.1 0"/>
<feBlend mode="normal" in2="BackgroundImageFix" result="effect1_dropShadow_585_4885"/>
<feBlend mode="normal" in="SourceGraphic" in2="effect1_dropShadow_585_4885" result="shape"/>
</filter>
<filter id="filter1_d_585_4885" x="0" y="0" width="334" height="82" filterUnits="userSpaceOnUse" color-interpolation-filters="sRGB">
<feFlood flood-opacity="0" result="BackgroundImageFix"/>
<feColorMatrix in="SourceAlpha" type="matrix" values="0 0 0 0 0 0 0 0 0 0 0 0 0 0 0 0 0 0 127 0" result="hardAlpha"/>
<feOffset/>
<feGaussianBlur stdDeviation="2"/>
<feComposite in2="hardAlpha" operator="out"/>
<feColorMatrix type="matrix" values="0 0 0 0 0 0 0 0 0 0 0 0 0 0 0 0 0 0 0.15 0"/>
<feBlend mode="normal" in2="BackgroundImageFix" result="effect1_dropShadow_585_4885"/>
<feBlend mode="normal" in="SourceGraphic" in2="effect1_dropShadow_585_4885" result="shape"/>
</filter>
</defs>
</svg>
