<svg width="385" height="137" viewBox="0 0 385 137" fill="none" xmlns="http://www.w3.org/2000/svg">
<path d="M26.8881 22.1168C26.5655 21.1043 26.1315 20.1974 25.5863 19.3963C25.0522 18.584 24.4124 17.8942 23.6669 17.3267C22.9214 16.7481 22.0702 16.3086 21.1133 16.0082C20.1675 15.7077 19.1271 15.5575 17.9922 15.5575C16.0672 15.5575 14.3314 16.0527 12.7848 17.043C11.2382 18.0333 10.0142 19.4853 9.11293 21.3991C8.22277 23.3018 7.7777 25.6329 7.7777 28.3924C7.7777 31.163 8.22834 33.5052 9.12962 35.419C10.0309 37.3329 11.266 38.7849 12.8349 39.7752C14.4038 40.7655 16.1896 41.2607 18.1925 41.2607C20.0507 41.2607 21.6696 40.8823 23.0494 40.1257C24.4402 39.3691 25.514 38.3009 26.2706 36.9212C27.0384 35.5303 27.4222 33.8946 27.4222 32.0142L28.7575 32.2646H18.9769V28.0085H32.4126V31.8974C32.4126 34.7681 31.8007 37.2605 30.5767 39.3746C29.3639 41.4776 27.6837 43.1022 25.5362 44.2482C23.3999 45.3943 20.9519 45.9673 18.1925 45.9673C15.0992 45.9673 12.3842 45.2552 10.0476 43.831C7.72206 42.4067 5.90838 40.3872 4.60653 37.7724C3.30469 35.1464 2.65376 32.0309 2.65376 28.4258C2.65376 25.6997 3.03208 23.2518 3.78871 21.082C4.54534 18.9123 5.60795 17.0708 6.97656 15.5575C8.3563 14.0331 9.97526 12.8704 11.8335 12.0692C13.7028 11.257 15.7446 10.8509 17.9588 10.8509C19.8059 10.8509 21.525 11.1235 23.1161 11.6687C24.7184 12.2139 26.1426 12.9872 27.3889 13.9886C28.6462 14.9901 29.6866 16.1806 30.5099 17.5604C31.3333 18.929 31.8897 20.4478 32.179 22.1168H26.8881ZM49.3575 46.0174C46.9541 46.0174 44.8567 45.4666 43.0653 44.3651C41.2738 43.2635 39.883 41.7224 38.8927 39.7418C37.9024 37.7612 37.4072 35.4469 37.4072 32.7986C37.4072 30.1393 37.9024 27.8138 38.8927 25.8221C39.883 23.8304 41.2738 22.2837 43.0653 21.1822C44.8567 20.0806 46.9541 19.5298 49.3575 19.5298C51.7609 19.5298 53.8583 20.0806 55.6498 21.1822C57.4412 22.2837 58.8321 23.8304 59.8224 25.8221C60.8126 27.8138 61.3078 30.1393 61.3078 32.7986C61.3078 35.4469 60.8126 37.7612 59.8224 39.7418C58.8321 41.7224 57.4412 43.2635 55.6498 44.3651C53.8583 45.4666 51.7609 46.0174 49.3575 46.0174ZM49.3742 41.8281C50.932 41.8281 52.2227 41.4164 53.2464 40.593C54.27 39.7696 55.0267 38.6737 55.5162 37.305C56.017 35.9364 56.2673 34.4287 56.2673 32.782C56.2673 31.1463 56.017 29.6442 55.5162 28.2756C55.0267 26.8958 54.27 25.7887 53.2464 24.9542C52.2227 24.1197 50.932 23.7024 49.3742 23.7024C47.8053 23.7024 46.5035 24.1197 45.4687 24.9542C44.445 25.7887 43.6828 26.8958 43.1821 28.2756C42.6925 29.6442 42.4477 31.1463 42.4477 32.782C42.4477 34.4287 42.6925 35.9364 43.1821 37.305C43.6828 38.6737 44.445 39.7696 45.4687 40.593C46.5035 41.4164 47.8053 41.8281 49.3742 41.8281ZM77.6768 46.0174C75.2734 46.0174 73.176 45.4666 71.3846 44.3651C69.5932 43.2635 68.2023 41.7224 67.212 39.7418C66.2217 37.7612 65.7266 35.4469 65.7266 32.7986C65.7266 30.1393 66.2217 27.8138 67.212 25.8221C68.2023 23.8304 69.5932 22.2837 71.3846 21.1822C73.176 20.0806 75.2734 19.5298 77.6768 19.5298C80.0803 19.5298 82.1777 20.0806 83.9691 21.1822C85.7605 22.2837 87.1514 23.8304 88.1417 25.8221C89.132 27.8138 89.6271 30.1393 89.6271 32.7986C89.6271 35.4469 89.132 37.7612 88.1417 39.7418C87.1514 41.7224 85.7605 43.2635 83.9691 44.3651C82.1777 45.4666 80.0803 46.0174 77.6768 46.0174ZM77.6935 41.8281C79.2513 41.8281 80.542 41.4164 81.5657 40.593C82.5894 39.7696 83.346 38.6737 83.8356 37.305C84.3363 35.9364 84.5866 34.4287 84.5866 32.782C84.5866 31.1463 84.3363 29.6442 83.8356 28.2756C83.346 26.8958 82.5894 25.7887 81.5657 24.9542C80.542 24.1197 79.2513 23.7024 77.6935 23.7024C76.1246 23.7024 74.8228 24.1197 73.788 24.9542C72.7643 25.7887 72.0021 26.8958 71.5014 28.2756C71.0118 29.6442 70.767 31.1463 70.767 32.782C70.767 34.4287 71.0118 35.9364 71.5014 37.305C72.0021 38.6737 72.7643 39.7696 73.788 40.593C74.8228 41.4164 76.1246 41.8281 77.6935 41.8281ZM104.794 46.0007C102.725 46.0007 100.878 45.4722 99.2533 44.4151C97.6399 43.3469 96.3714 41.8281 95.4479 39.8587C94.5355 37.8781 94.0793 35.5025 94.0793 32.7319C94.0793 29.9613 94.541 27.5913 95.4646 25.6218C96.3992 23.6523 97.6788 22.1446 99.3034 21.0987C100.928 20.0528 102.769 19.5298 104.828 19.5298C106.419 19.5298 107.699 19.7969 108.667 20.331C109.646 20.8539 110.402 21.4659 110.937 22.1669C111.482 22.8679 111.905 23.4854 112.205 24.0195H112.505V11.3182H117.496V45.5H112.622V41.511H112.205C111.905 42.0562 111.471 42.6793 110.903 43.3803C110.347 44.0813 109.579 44.6933 108.6 45.2163C107.621 45.7392 106.352 46.0007 104.794 46.0007ZM105.896 41.7447C107.331 41.7447 108.544 41.3664 109.535 40.6097C110.536 39.842 111.293 38.7794 111.804 37.4219C112.327 36.0644 112.589 34.4844 112.589 32.6818C112.589 30.9015 112.333 29.3437 111.821 28.0085C111.309 26.6733 110.558 25.6329 109.568 24.8874C108.578 24.1419 107.354 23.7692 105.896 23.7692C104.394 23.7692 103.142 24.1586 102.141 24.9375C101.139 25.7164 100.383 26.779 99.8708 28.1254C99.3701 29.4717 99.1198 30.9905 99.1198 32.6818C99.1198 34.3954 99.3757 35.9364 99.8875 37.305C100.399 38.6737 101.156 39.7585 102.157 40.5597C103.17 41.3497 104.416 41.7447 105.896 41.7447ZM137.057 45.5V19.8636H141.847V24.0362H142.164C142.698 22.6231 143.572 21.5215 144.785 20.7315C145.997 19.9304 147.449 19.5298 149.141 19.5298C150.854 19.5298 152.29 19.9304 153.447 20.7315C154.615 21.5327 155.477 22.6342 156.034 24.0362H156.301C156.913 22.6676 157.886 21.5772 159.222 20.7649C160.557 19.9415 162.148 19.5298 163.995 19.5298C166.321 19.5298 168.218 20.2586 169.687 21.7163C171.166 23.1739 171.906 25.3714 171.906 28.3089V45.5H166.916V28.7763C166.916 27.0405 166.443 25.7831 165.497 25.0043C164.551 24.2254 163.422 23.8359 162.109 23.8359C160.485 23.8359 159.222 24.3366 158.32 25.3381C157.419 26.3284 156.968 27.6024 156.968 29.1602V45.5H151.995V28.4592C151.995 27.0683 151.561 25.95 150.693 25.1044C149.825 24.2588 148.696 23.8359 147.305 23.8359C146.359 23.8359 145.486 24.0863 144.684 24.587C143.894 25.0766 143.255 25.7609 142.765 26.6399C142.287 27.5189 142.047 28.537 142.047 29.6942V45.5H137.057ZM189.394 46.0174C186.99 46.0174 184.893 45.4666 183.101 44.3651C181.31 43.2635 179.919 41.7224 178.929 39.7418C177.939 37.7612 177.443 35.4469 177.443 32.7986C177.443 30.1393 177.939 27.8138 178.929 25.8221C179.919 23.8304 181.31 22.2837 183.101 21.1822C184.893 20.0806 186.99 19.5298 189.394 19.5298C191.797 19.5298 193.894 20.0806 195.686 21.1822C197.477 22.2837 198.868 23.8304 199.858 25.8221C200.849 27.8138 201.344 30.1393 201.344 32.7986C201.344 35.4469 200.849 37.7612 199.858 39.7418C198.868 41.7224 197.477 43.2635 195.686 44.3651C193.894 45.4666 191.797 46.0174 189.394 46.0174ZM189.41 41.8281C190.968 41.8281 192.259 41.4164 193.282 40.593C194.306 39.7696 195.063 38.6737 195.552 37.305C196.053 35.9364 196.303 34.4287 196.303 32.782C196.303 31.1463 196.053 29.6442 195.552 28.2756C195.063 26.8958 194.306 25.7887 193.282 24.9542C192.259 24.1197 190.968 23.7024 189.41 23.7024C187.841 23.7024 186.54 24.1197 185.505 24.9542C184.481 25.7887 183.719 26.8958 183.218 28.2756C182.729 29.6442 182.484 31.1463 182.484 32.782C182.484 34.4287 182.729 35.9364 183.218 37.305C183.719 38.6737 184.481 39.7696 185.505 40.593C186.54 41.4164 187.841 41.8281 189.41 41.8281ZM206.914 45.5V19.8636H211.738V23.9361H212.005C212.472 22.5563 213.296 21.4715 214.475 20.6815C215.666 19.8803 217.012 19.4798 218.514 19.4798C218.826 19.4798 219.193 19.4909 219.616 19.5131C220.05 19.5354 220.389 19.5632 220.634 19.5966V24.37C220.434 24.3144 220.077 24.2532 219.566 24.1864C219.054 24.1085 218.542 24.0696 218.03 24.0696C216.851 24.0696 215.799 24.32 214.876 24.8207C213.963 25.3103 213.24 25.9946 212.706 26.8736C212.172 27.7415 211.905 28.7318 211.905 29.8445V45.5H206.914ZM229.943 30.2784V45.5H224.952V19.8636H229.743V24.0362H230.06C230.649 22.6787 231.573 21.5883 232.83 20.7649C234.099 19.9415 235.695 19.5298 237.62 19.5298C239.367 19.5298 240.897 19.897 242.21 20.6314C243.523 21.3546 244.541 22.4339 245.265 23.8693C245.988 25.3047 246.349 27.0794 246.349 29.1935V45.5H241.359V29.7944C241.359 27.9362 240.875 26.4841 239.907 25.4382C238.939 24.3812 237.609 23.8526 235.918 23.8526C234.761 23.8526 233.732 24.103 232.83 24.6037C231.94 25.1044 231.234 25.8388 230.711 26.8068C230.199 27.7637 229.943 28.9209 229.943 30.2784ZM253.042 45.5V19.8636H258.033V45.5H253.042ZM255.562 15.908C254.695 15.908 253.949 15.6187 253.326 15.0401C252.714 14.4504 252.408 13.7494 252.408 12.9371C252.408 12.1138 252.714 11.4128 253.326 10.8342C253.949 10.2444 254.695 9.94957 255.562 9.94957C256.43 9.94957 257.17 10.2444 257.782 10.8342C258.405 11.4128 258.717 12.1138 258.717 12.9371C258.717 13.7494 258.405 14.4504 257.782 15.0401C257.17 15.6187 256.43 15.908 255.562 15.908ZM269.737 30.2784V45.5H264.746V19.8636H269.536V24.0362H269.854C270.443 22.6787 271.367 21.5883 272.624 20.7649C273.893 19.9415 275.489 19.5298 277.414 19.5298C279.161 19.5298 280.691 19.897 282.004 20.6314C283.317 21.3546 284.335 22.4339 285.059 23.8693C285.782 25.3047 286.143 27.0794 286.143 29.1935V45.5H281.153V29.7944C281.153 27.9362 280.669 26.4841 279.701 25.4382C278.733 24.3812 277.403 23.8526 275.712 23.8526C274.555 23.8526 273.525 24.103 272.624 24.6037C271.734 25.1044 271.027 25.8388 270.505 26.8068C269.993 27.7637 269.737 28.9209 269.737 30.2784ZM303.585 55.6477C301.549 55.6477 299.796 55.3807 298.327 54.8466C296.87 54.3125 295.679 53.6059 294.756 52.7269C293.832 51.8479 293.142 50.8854 292.686 49.8395L296.975 48.0703C297.276 48.5599 297.676 49.0773 298.177 49.6225C298.689 50.1789 299.379 50.6518 300.247 51.0412C301.126 51.4306 302.255 51.6254 303.635 51.6254C305.526 51.6254 307.09 51.1636 308.325 50.2401C309.56 49.3277 310.177 47.87 310.177 45.8672V40.8267H309.86C309.56 41.3719 309.126 41.9783 308.559 42.646C308.002 43.3136 307.234 43.8922 306.255 44.3817C305.276 44.8713 304.002 45.1161 302.433 45.1161C300.408 45.1161 298.583 44.6432 296.959 43.6974C295.345 42.7405 294.066 41.333 293.12 39.4748C292.185 37.6055 291.718 35.3078 291.718 32.5817C291.718 29.8556 292.18 27.5189 293.103 25.5717C294.038 23.6245 295.318 22.1335 296.942 21.0987C298.567 20.0528 300.408 19.5298 302.467 19.5298C304.058 19.5298 305.343 19.7969 306.322 20.331C307.301 20.8539 308.063 21.4659 308.609 22.1669C309.165 22.8679 309.593 23.4854 309.894 24.0195H310.261V19.8636H315.151V46.0675C315.151 48.2706 314.639 50.0787 313.616 51.4918C312.592 52.9049 311.207 53.9509 309.46 54.6296C307.724 55.3084 305.766 55.6477 303.585 55.6477ZM303.535 40.9769C304.97 40.9769 306.183 40.6431 307.173 39.9755C308.175 39.2968 308.931 38.3287 309.443 37.0714C309.966 35.8029 310.228 34.2841 310.228 32.5149C310.228 30.7902 309.972 29.2714 309.46 27.9585C308.948 26.6455 308.197 25.6218 307.207 24.8874C306.216 24.1419 304.992 23.7692 303.535 23.7692C302.033 23.7692 300.781 24.1586 299.779 24.9375C298.778 25.7053 298.021 26.7512 297.509 28.0753C297.009 29.3994 296.758 30.8793 296.758 32.5149C296.758 34.1951 297.014 35.6694 297.526 36.9379C298.038 38.2063 298.795 39.1966 299.796 39.9087C300.809 40.6209 302.055 40.9769 303.535 40.9769ZM328.337 40.8267L328.086 42.646C327.919 43.9812 327.636 45.372 327.235 46.8185C326.846 48.2762 326.439 49.6281 326.017 50.8743C325.605 52.1205 325.266 53.1108 324.998 53.8452H321.46C321.605 53.1553 321.805 52.2206 322.061 51.0412C322.317 49.8729 322.567 48.5655 322.812 47.119C323.057 45.6725 323.24 44.1982 323.363 42.696L323.53 40.8267H328.337Z" fill="#2A3647"/>
<path d="M29.2955 88.3409C29.1136 86.5076 28.3333 85.0833 26.9545 84.0682C25.5758 83.053 23.7045 82.5455 21.3409 82.5455C19.7348 82.5455 18.3788 82.7727 17.2727 83.2273C16.1667 83.6667 15.3182 84.2803 14.7273 85.0682C14.1515 85.8561 13.8636 86.75 13.8636 87.75C13.8333 88.5833 14.0076 89.3106 14.3864 89.9318C14.7803 90.553 15.3182 91.0909 16 91.5455C16.6818 91.9848 17.4697 92.3712 18.3636 92.7045C19.2576 93.0227 20.2121 93.2955 21.2273 93.5227L25.4091 94.5227C27.4394 94.9773 29.303 95.5833 31 96.3409C32.697 97.0985 34.1667 98.0303 35.4091 99.1364C36.6515 100.242 37.6136 101.545 38.2955 103.045C38.9924 104.545 39.3485 106.265 39.3636 108.205C39.3485 111.053 38.6212 113.523 37.1818 115.614C35.7576 117.689 33.697 119.303 31 120.455C28.3182 121.591 25.0833 122.159 21.2955 122.159C17.5379 122.159 14.2652 121.583 11.4773 120.432C8.70455 119.28 6.53788 117.576 4.97727 115.318C3.43182 113.045 2.62121 110.235 2.54545 106.886H12.0682C12.1742 108.447 12.6212 109.75 13.4091 110.795C14.2121 111.826 15.2803 112.606 16.6136 113.136C17.9621 113.652 19.4848 113.909 21.1818 113.909C22.8485 113.909 24.2955 113.667 25.5227 113.182C26.7652 112.697 27.7273 112.023 28.4091 111.159C29.0909 110.295 29.4318 109.303 29.4318 108.182C29.4318 107.136 29.1212 106.258 28.5 105.545C27.8939 104.833 27 104.227 25.8182 103.727C24.6515 103.227 23.2197 102.773 21.5227 102.364L16.4545 101.091C12.5303 100.136 9.43182 98.6439 7.15909 96.6136C4.88636 94.5833 3.75758 91.8485 3.77273 88.4091C3.75758 85.5909 4.50758 83.1288 6.02273 81.0227C7.55303 78.9167 9.65152 77.2727 12.3182 76.0909C14.9848 74.9091 18.0152 74.3182 21.4091 74.3182C24.8636 74.3182 27.8788 74.9091 30.4545 76.0909C33.0455 77.2727 35.0606 78.9167 36.5 81.0227C37.9394 83.1288 38.6818 85.5682 38.7273 88.3409H29.2955ZM61.5739 122.182C58.0436 122.182 54.9905 121.432 52.4148 119.932C49.8542 118.417 47.8769 116.311 46.483 113.614C45.089 110.902 44.392 107.758 44.392 104.182C44.392 100.576 45.089 97.4242 46.483 94.7273C47.8769 92.0152 49.8542 89.9091 52.4148 88.4091C54.9905 86.8939 58.0436 86.1364 61.5739 86.1364C65.1042 86.1364 68.1496 86.8939 70.7102 88.4091C73.286 89.9091 75.2708 92.0152 76.6648 94.7273C78.0587 97.4242 78.7557 100.576 78.7557 104.182C78.7557 107.758 78.0587 110.902 76.6648 113.614C75.2708 116.311 73.286 118.417 70.7102 119.932C68.1496 121.432 65.1042 122.182 61.5739 122.182ZM61.6193 114.682C63.2254 114.682 64.5663 114.227 65.642 113.318C66.7178 112.394 67.5284 111.136 68.0739 109.545C68.6345 107.955 68.9148 106.144 68.9148 104.114C68.9148 102.083 68.6345 100.273 68.0739 98.6818C67.5284 97.0909 66.7178 95.8333 65.642 94.9091C64.5663 93.9848 63.2254 93.5227 61.6193 93.5227C59.9981 93.5227 58.6345 93.9848 57.5284 94.9091C56.4375 95.8333 55.6117 97.0909 55.0511 98.6818C54.5057 100.273 54.233 102.083 54.233 104.114C54.233 106.144 54.5057 107.955 55.0511 109.545C55.6117 111.136 56.4375 112.394 57.5284 113.318C58.6345 114.227 59.9981 114.682 61.6193 114.682ZM103.824 86.5909V93.8636H82.2784V86.5909H103.824ZM87.2102 121.5V84.0682C87.2102 81.5379 87.7027 79.4394 88.6875 77.7727C89.6875 76.1061 91.0511 74.8561 92.7784 74.0227C94.5057 73.1894 96.4678 72.7727 98.6648 72.7727C100.15 72.7727 101.506 72.8864 102.733 73.1136C103.975 73.3409 104.9 73.5455 105.506 73.7273L103.778 81C103.4 80.8788 102.93 80.7651 102.369 80.6591C101.824 80.553 101.263 80.5 100.688 80.5C99.2633 80.5 98.2708 80.8333 97.7102 81.5C97.1496 82.1515 96.8693 83.0682 96.8693 84.25V121.5H87.2102ZM109.739 121.5V86.5909H119.42V121.5H109.739ZM114.602 82.0909C113.163 82.0909 111.928 81.6136 110.898 80.6591C109.883 79.6894 109.375 78.5303 109.375 77.1818C109.375 75.8485 109.883 74.7045 110.898 73.75C111.928 72.7803 113.163 72.2955 114.602 72.2955C116.042 72.2955 117.269 72.7803 118.284 73.75C119.314 74.7045 119.83 75.8485 119.83 77.1818C119.83 78.5303 119.314 79.6894 118.284 80.6591C117.269 81.6136 116.042 82.0909 114.602 82.0909ZM137.131 122.159C134.903 122.159 132.919 121.773 131.176 121C129.434 120.212 128.055 119.053 127.04 117.523C126.04 115.977 125.54 114.053 125.54 111.75C125.54 109.811 125.896 108.182 126.608 106.864C127.32 105.545 128.29 104.485 129.517 103.682C130.744 102.879 132.138 102.273 133.699 101.864C135.275 101.455 136.926 101.167 138.653 101C140.684 100.788 142.32 100.591 143.562 100.409C144.805 100.212 145.706 99.9242 146.267 99.5455C146.828 99.1667 147.108 98.6061 147.108 97.8636V97.7273C147.108 96.2879 146.653 95.1742 145.744 94.3864C144.85 93.5985 143.578 93.2045 141.926 93.2045C140.184 93.2045 138.797 93.5909 137.767 94.3636C136.737 95.1212 136.055 96.0758 135.722 97.2273L126.767 96.5C127.222 94.3788 128.116 92.5455 129.449 91C130.782 89.4394 132.502 88.2424 134.608 87.4091C136.729 86.5606 139.184 86.1364 141.972 86.1364C143.911 86.1364 145.767 86.3636 147.54 86.8182C149.328 87.2727 150.911 87.9773 152.29 88.9318C153.684 89.8864 154.782 91.1136 155.585 92.6136C156.388 94.0985 156.79 95.8788 156.79 97.9545V121.5H147.608V116.659H147.335C146.775 117.75 146.025 118.712 145.085 119.545C144.146 120.364 143.017 121.008 141.699 121.477C140.381 121.932 138.858 122.159 137.131 122.159ZM139.903 115.477C141.328 115.477 142.585 115.197 143.676 114.636C144.767 114.061 145.623 113.288 146.244 112.318C146.866 111.348 147.176 110.25 147.176 109.023V105.318C146.873 105.515 146.456 105.697 145.926 105.864C145.411 106.015 144.828 106.159 144.176 106.295C143.525 106.417 142.873 106.53 142.222 106.636C141.57 106.727 140.979 106.811 140.449 106.886C139.313 107.053 138.32 107.318 137.472 107.682C136.623 108.045 135.964 108.538 135.494 109.159C135.025 109.765 134.79 110.523 134.79 111.432C134.79 112.75 135.267 113.758 136.222 114.455C137.191 115.136 138.419 115.477 139.903 115.477ZM179.295 74.9545H191.432L204.25 106.227H204.795L217.614 74.9545H229.75V121.5H220.205V91.2045H219.818L207.773 121.273H201.273L189.227 91.0909H188.841V121.5H179.295V74.9545ZM260.062 106.636V86.5909H269.744V121.5H260.449V115.159H260.085C259.297 117.205 257.987 118.848 256.153 120.091C254.335 121.333 252.116 121.955 249.494 121.955C247.161 121.955 245.108 121.424 243.335 120.364C241.563 119.303 240.176 117.795 239.176 115.841C238.191 113.886 237.691 111.545 237.676 108.818V86.5909H247.358V107.091C247.373 109.152 247.926 110.78 249.017 111.977C250.108 113.174 251.57 113.773 253.403 113.773C254.57 113.773 255.661 113.508 256.676 112.977C257.691 112.432 258.509 111.629 259.131 110.568C259.767 109.508 260.078 108.197 260.062 106.636ZM246.835 81.8182C245.532 81.8182 244.411 81.3636 243.472 80.4545C242.532 79.5303 242.062 78.4394 242.062 77.1818C242.062 75.8939 242.532 74.803 243.472 73.9091C244.411 73.0151 245.532 72.5682 246.835 72.5682C248.153 72.5682 249.267 73.0151 250.176 73.9091C251.1 74.803 251.562 75.8939 251.562 77.1818C251.562 78.4394 251.1 79.5303 250.176 80.4545C249.267 81.3636 248.153 81.8182 246.835 81.8182ZM260.744 81.8182C259.441 81.8182 258.32 81.3636 257.381 80.4545C256.441 79.5303 255.972 78.4394 255.972 77.1818C255.972 75.8939 256.441 74.803 257.381 73.9091C258.32 73.0151 259.441 72.5682 260.744 72.5682C262.063 72.5682 263.176 73.0151 264.085 73.9091C265.009 74.803 265.472 75.8939 265.472 77.1818C265.472 78.4394 265.009 79.5303 264.085 80.4545C263.176 81.3636 262.063 81.8182 260.744 81.8182ZM287.17 74.9545V121.5H277.489V74.9545H287.17ZM304.608 74.9545V121.5H294.926V74.9545H304.608ZM328.273 122.182C324.682 122.182 321.591 121.455 319 120C316.424 118.53 314.439 116.455 313.045 113.773C311.652 111.076 310.955 107.886 310.955 104.205C310.955 100.614 311.652 97.4621 313.045 94.75C314.439 92.0379 316.402 89.9242 318.932 88.4091C321.477 86.8939 324.462 86.1364 327.886 86.1364C330.189 86.1364 332.333 86.5076 334.318 87.25C336.318 87.9773 338.061 89.0758 339.545 90.5455C341.045 92.0152 342.212 93.8636 343.045 96.0909C343.879 98.303 344.295 100.894 344.295 103.864V106.523H314.818V100.523H335.182C335.182 99.1288 334.879 97.8939 334.273 96.8182C333.667 95.7424 332.826 94.9015 331.75 94.2955C330.689 93.6742 329.455 93.3636 328.045 93.3636C326.576 93.3636 325.273 93.7045 324.136 94.3864C323.015 95.053 322.136 95.9545 321.5 97.0909C320.864 98.2121 320.538 99.4621 320.523 100.841V106.545C320.523 108.273 320.841 109.765 321.477 111.023C322.129 112.28 323.045 113.25 324.227 113.932C325.409 114.614 326.811 114.955 328.432 114.955C329.508 114.955 330.492 114.803 331.386 114.5C332.28 114.197 333.045 113.742 333.682 113.136C334.318 112.53 334.803 111.788 335.136 110.909L344.091 111.5C343.636 113.652 342.705 115.53 341.295 117.136C339.902 118.727 338.098 119.97 335.886 120.864C333.689 121.742 331.152 122.182 328.273 122.182ZM350.614 121.5V86.5909H360V92.6818H360.364C361 90.5152 362.068 88.8788 363.568 87.7727C365.068 86.6515 366.795 86.0909 368.75 86.0909C369.235 86.0909 369.758 86.1212 370.318 86.1818C370.879 86.2424 371.371 86.3258 371.795 86.4318V95.0227C371.341 94.8864 370.712 94.7652 369.909 94.6591C369.106 94.553 368.371 94.5 367.705 94.5C366.28 94.5 365.008 94.8106 363.886 95.4318C362.78 96.0379 361.902 96.8864 361.25 97.9773C360.614 99.0682 360.295 100.326 360.295 101.75V121.5H350.614Z" fill="#29ABE2"/>
</svg>
