<svg width="33" height="49" viewBox="0 0 33 49" fill="none" xmlns="http://www.w3.org/2000/svg">
<path d="M16.0682 48.1364C13.0379 48.1364 10.3258 47.5682 7.93182 46.4318C5.53788 45.2803 3.63636 43.7045 2.22727 41.7045C0.833334 39.7045 0.0909093 37.4167 0 34.8409H8.18182C8.33333 36.75 9.15909 38.3106 10.6591 39.5227C12.1591 40.7197 13.9621 41.3182 16.0682 41.3182C17.7197 41.3182 19.1894 40.9394 20.4773 40.1818C21.7652 39.4242 22.7803 38.3712 23.5227 37.0227C24.2652 35.6742 24.6288 34.1364 24.6136 32.4091C24.6288 30.6515 24.2576 29.0909 23.5 27.7273C22.7424 26.3636 21.7045 25.2955 20.3864 24.5227C19.0682 23.7348 17.553 23.3409 15.8409 23.3409C14.447 23.3258 13.0758 23.5833 11.7273 24.1136C10.3788 24.6439 9.31061 25.3409 8.52273 26.2045L0.909091 24.9545L3.34091 0.954544H30.3409V8H10.3182L8.97727 20.3409H9.25C10.1136 19.3258 11.3333 18.4848 12.9091 17.8182C14.4848 17.1364 16.2121 16.7955 18.0909 16.7955C20.9091 16.7955 23.4242 17.4621 25.6364 18.7955C27.8485 20.1136 29.5909 21.9318 30.8636 24.25C32.1364 26.5682 32.7727 29.2197 32.7727 32.2045C32.7727 35.2803 32.0606 38.0227 30.6364 40.4318C29.2273 42.8258 27.2652 44.7121 24.75 46.0909C22.25 47.4545 19.3561 48.1364 16.0682 48.1364Z" fill="black"/>
</svg>
