<svg width="34" height="48" viewBox="0 0 34 48" fill="none" xmlns="http://www.w3.org/2000/svg">
<path d="M1.26136 47.5V41.4091L17.4205 25.5682C18.9659 24.0076 20.2538 22.6212 21.2841 21.4091C22.3144 20.197 23.0871 19.0227 23.6023 17.8864C24.1174 16.75 24.375 15.5379 24.375 14.25C24.375 12.7803 24.0417 11.5227 23.375 10.4773C22.7083 9.41667 21.7917 8.59849 20.625 8.02273C19.4583 7.44697 18.1326 7.15909 16.6477 7.15909C15.1174 7.15909 13.7765 7.47727 12.625 8.11364C11.4735 8.73485 10.5795 9.62121 9.94318 10.7727C9.32197 11.9242 9.01136 13.2955 9.01136 14.8864H0.988636C0.988636 11.9318 1.66288 9.36363 3.01136 7.18182C4.35985 5 6.21591 3.3106 8.57955 2.11364C10.9583 0.916665 13.6856 0.31818 16.7614 0.31818C19.8826 0.31818 22.625 0.901513 24.9886 2.06818C27.3523 3.23485 29.1856 4.83333 30.4886 6.86364C31.8068 8.89394 32.4659 11.2121 32.4659 13.8182C32.4659 15.5606 32.1326 17.2727 31.4659 18.9545C30.7992 20.6364 29.625 22.5 27.9432 24.5455C26.2765 26.5909 23.9356 29.0682 20.9205 31.9773L12.8977 40.1364V40.4545H33.1705V47.5H1.26136Z" fill="black"/>
</svg>
